<svg width="108" height="30" viewBox="0 0 108 30" fill="none" xmlns="http://www.w3.org/2000/svg">
    <path d="M0 8C0 3.58172 3.58172 0 8 0H54C58.4183 0 62 3.58172 62 8V22C62 26.4183 58.4183 30 54 30H0V8Z" fill="#EEF7F6"/>
    <path d="M8 21.7063H11.2091C10.4359 20.551 10.4359 20.551 10.4359 20.0615V11.5441L18.7487 21.8434H20.1019V9.62517C20.1019 9.15524 20.1019 9.15524 20.6432 8H17.5114C18.2267 9.15524 18.2267 9.15524 18.2267 9.64475V16.7524L11.3638 8H8.01933L8.56063 8.60699V20.0811C8.56063 20.551 8.56063 20.551 8 21.7063Z" fill="#3E8D9E"/>
    <path d="M27.5847 22C30.5232 22 32.7657 19.9636 32.7657 16.8503C32.7657 13.7566 30.5425 11.7594 27.5847 11.7594C24.6462 11.7594 22.4037 13.7566 22.4037 16.8699C22.4037 19.9636 24.6462 22 27.5847 22ZM25.2455 16.5371C25.2455 14.5986 26.0961 13.4238 27.5074 13.4238C28.9959 13.4238 29.9432 14.8727 29.9432 17.2028C29.9432 19.1608 29.0733 20.3357 27.662 20.3357C26.1734 20.3357 25.2455 18.8867 25.2455 16.5371Z" fill="#3E8D9E"/>
    <path d="M37.5192 12.0531H33.4014C33.962 12.993 33.962 12.993 34.484 14.1483L37.9058 21.8434H39.3171L42.7388 14.1678C43.2608 13.0126 43.2608 13.0126 43.8021 12.0531H40.7283C41.2696 13.0909 41.2696 13.0909 40.9216 13.9524L39.1044 18.2993L37.3258 13.9916C36.9392 13.0517 36.9392 13.0517 37.5192 12.0531Z" fill="#3E8D9E"/>
    <path d="M49.6114 22C52.3373 22 53.6905 20.551 53.8258 18.6909C53.2459 19.3762 52.1053 19.7483 50.868 19.7483C48.7415 19.7483 47.2529 18.5343 47.1756 16.6154H53.9998C54.0192 13.7566 52.3759 11.7594 49.2828 11.7594C46.2863 11.7594 44.4884 14.0308 44.4884 16.9483C44.4884 20.042 46.5376 22 49.6114 22ZM47.1756 15.4601C47.2336 13.9133 47.9875 12.9538 49.2441 12.9538C50.5587 12.9538 51.2547 13.9916 51.2547 15.4601H47.1756Z" fill="#3E8D9E"/>
    <path d="M76.7468 22C79.9735 22 81.7727 20.4849 82.0269 17.6466C81.2447 18.8932 79.7193 19.5644 77.9006 19.5644C74.9672 19.5644 72.9138 17.6274 72.9138 14.3863C72.9138 11.5096 74.5957 9.8411 77.2162 9.8411C79.1131 9.8411 80.6189 10.6849 81.8118 12.6027V9.30411C80.7167 8.46027 79.2109 8 77.2553 8C72.8747 8 70 10.8575 70 15.2301C70 19.1616 72.6792 22 76.7468 22Z" fill="white"/>
    <path d="M85.9972 22C86.9946 22 87.7573 21.2137 87.7573 20.2932C87.7573 19.3151 86.9946 18.5671 85.9972 18.5671C85.039 18.5671 84.2568 19.3151 84.2568 20.2932C84.2568 21.2137 85.039 22 85.9972 22Z" fill="white"/>
    <path d="M90.1538 21.7123H94.3583C93.5761 20.5425 93.5761 20.5425 93.5761 20.0438V15.6329H94.4952L98.9931 21.7123H102.631C101.79 20.8685 101.79 20.8685 100.949 19.7753L97.5851 15.4411C99.5798 14.9808 100.694 13.6959 100.694 11.989C100.694 9.91781 98.9735 8.28767 95.8641 8.28767H90.1538C90.7209 9.4 90.7209 9.4 90.7209 9.87945V20.1205C90.7209 20.5808 90.7209 20.5808 90.1538 21.7123ZM93.5761 14.2904V9.80274H95.1601C96.9202 9.80274 97.7415 10.6849 97.7415 12.0466C97.7415 13.389 96.9202 14.2904 95.1601 14.2904H93.5761Z" fill="white"/>
    <path d="M106.122 22C107.12 22 107.882 21.2137 107.882 20.2932C107.882 19.3151 107.12 18.5671 106.122 18.5671C105.164 18.5671 104.382 19.3151 104.382 20.2932C104.382 21.2137 105.164 22 106.122 22Z" fill="white"/>
</svg>
